<svg width="36" height="36" viewBox="0 0 36 36" fill="none" xmlns="http://www.w3.org/2000/svg">
<path d="M18 27.75C18.625 27.75 19.1565 27.531 19.5945 27.093C20.0325 26.655 20.251 26.124 20.25 25.5H15.75C15.75 26.125 15.969 26.6565 16.407 27.0945C16.845 27.5325 17.376 27.751 18 27.75ZM10.5 24H25.5V21H24V17.1C24 15.575 23.606 14.181 22.818 12.918C22.03 11.655 20.924 10.849 19.5 10.5V9.75C19.5 9.325 19.356 8.9685 19.068 8.6805C18.78 8.3925 18.424 8.249 18 8.25C17.575 8.25 17.2185 8.394 16.9305 8.682C16.6425 8.97 16.499 9.326 16.5 9.75V10.5C15.075 10.85 13.969 11.6565 13.182 12.9195C12.395 14.1825 12.001 15.576 12 17.1V21H10.5V24ZM18 33C15.925 33 13.975 32.606 12.15 31.818C10.325 31.03 8.7375 29.9615 7.3875 28.6125C6.0375 27.2625 4.969 25.675 4.182 23.85C3.395 22.025 3.001 20.075 3 18C3 15.925 3.394 13.975 4.182 12.15C4.97 10.325 6.0385 8.7375 7.3875 7.3875C8.7375 6.0375 10.325 4.969 12.15 4.182C13.975 3.395 15.925 3.001 18 3C20.075 3 22.025 3.394 23.85 4.182C25.675 4.97 27.2625 6.0385 28.6125 7.3875C29.9625 8.7375 31.0315 10.325 31.8195 12.15C32.6075 13.975 33.001 15.925 33 18C33 20.075 32.606 22.025 31.818 23.85C31.03 25.675 29.9615 27.2625 28.6125 28.6125C27.2625 29.9625 25.675 31.0315 23.85 31.8195C22.025 32.6075 20.075 33.001 18 33Z" fill="#309CFF"/>
</svg>
