<svg width="30" height="30" viewBox="0 0 30 30" fill="none" xmlns="http://www.w3.org/2000/svg">
<g clip-path="url(#clip0_14_619)">
<path d="M10.4508 0.986669C7.45332 2.02652 4.86831 4.00018 3.07545 6.61777C1.28259 9.23535 0.376388 12.3589 0.489945 15.5296C0.603502 18.7002 1.73083 21.7509 3.70635 24.2335C5.68187 26.7162 8.40145 28.4999 11.4656 29.3226C13.9498 29.9636 16.5525 29.9918 19.05 29.4046C21.3125 28.8964 23.4042 27.8094 25.1203 26.25C26.9064 24.5773 28.2029 22.4495 28.8703 20.0953C29.5955 17.5351 29.7246 14.8428 29.2477 12.2249H15.2977V18.0117H23.3766C23.2151 18.9346 22.8691 19.8155 22.3593 20.6016C21.8494 21.3877 21.1862 22.0629 20.4094 22.5867C19.423 23.2395 18.3109 23.6786 17.1445 23.8757C15.9749 24.0933 14.7751 24.0933 13.6055 23.8757C12.4199 23.6309 11.2984 23.1416 10.3125 22.439C8.72848 21.3177 7.53909 19.7248 6.91407 17.8875C6.27865 16.0157 6.27865 13.9866 6.91407 12.1148C7.35897 10.8028 8.09446 9.60824 9.06563 8.62026C10.177 7.46889 11.5841 6.64588 13.1324 6.24153C14.6807 5.83719 16.3105 5.86713 17.843 6.32807C19.0402 6.6954 20.1349 7.33748 21.0398 8.20307C21.9508 7.29682 22.8602 6.38823 23.768 5.47729C24.2367 4.98745 24.7477 4.52104 25.2094 4.01948C23.8278 2.73398 22.2062 1.73363 20.4375 1.07573C17.2165 -0.093824 13.6921 -0.125255 10.4508 0.986669Z" fill="white"/>
<path d="M10.4508 0.986831C13.6919 -0.125848 17.2162 -0.0952446 20.4375 1.07355C22.2065 1.73592 23.8274 2.74108 25.207 4.03136C24.7383 4.53293 24.2437 5.00167 23.7656 5.48917C22.8562 6.39699 21.9477 7.30167 21.0398 8.20324C20.1349 7.33764 19.0402 6.69556 17.843 6.32824C16.311 5.86568 14.6813 5.834 13.1325 6.2367C11.5838 6.63939 10.1759 7.46088 9.06328 8.61105C8.09211 9.59902 7.35662 10.7936 6.91172 12.1056L2.05312 8.34386C3.79221 4.89518 6.80332 2.2572 10.4508 0.986831Z" fill="#E33629"/>
<path d="M0.76406 12.0703C1.02501 10.776 1.45857 9.52264 2.05312 8.34375L6.91172 12.1148C6.2763 13.9866 6.2763 16.0157 6.91172 17.8875C5.29297 19.1375 3.67344 20.3938 2.05312 21.6563C0.565195 18.6945 0.111403 15.3199 0.76406 12.0703Z" fill="#F8BD00"/>
<path d="M15.2977 12.2227H29.2477C29.7246 14.8405 29.5955 17.5328 28.8703 20.093C28.2029 22.4472 26.9064 24.575 25.1203 26.2477C23.5523 25.0242 21.9773 23.8102 20.4094 22.5867C21.1867 22.0624 21.8502 21.3865 22.3601 20.5995C22.87 19.8126 23.2157 18.9308 23.3766 18.007H15.2977C15.2953 16.0805 15.2977 14.1516 15.2977 12.2227Z" fill="#587DBD"/>
<path d="M2.05078 21.6562C3.67109 20.4062 5.29062 19.15 6.90937 17.8875C7.53564 19.7254 8.72673 21.3185 10.3125 22.439C11.3014 23.1383 12.4254 23.6236 13.6125 23.864C14.7822 24.0816 15.9819 24.0816 17.1516 23.864C18.3179 23.6669 19.43 23.2278 20.4164 22.575C21.9844 23.7984 23.5594 25.0125 25.1273 26.2359C23.4115 27.7962 21.3197 28.884 19.057 29.3929C16.5596 29.98 13.9569 29.9519 11.4727 29.3109C9.50789 28.7863 7.67268 27.8615 6.08203 26.5945C4.39858 25.2577 3.02352 23.5732 2.05078 21.6562Z" fill="#319F43"/>
</g>
<defs>
<clipPath id="clip0_14_619">
<rect width="30" height="30" fill="white"/>
</clipPath>
</defs>
</svg>
