<svg width="35" height="35" viewBox="0 0 35 35" fill="none" xmlns="http://www.w3.org/2000/svg">
<path d="M20.6646 19.9937L22.7063 16.4645C22.8375 16.2458 22.7792 15.9687 22.5896 15.8083L20.4313 14.1166C20.475 13.7958 20.5042 13.4604 20.5042 13.125C20.5042 12.7895 20.475 12.4541 20.4313 12.1187L22.5896 10.427C22.7792 10.2666 22.8375 9.98954 22.7063 9.77079L20.6646 6.24163C20.5333 6.02288 20.2708 5.93538 20.0375 6.02288L17.5 7.04371C16.975 6.63538 16.4063 6.29996 15.7792 6.03746L15.4 3.33954C15.3755 3.2216 15.3117 3.11548 15.2189 3.03862C15.1262 2.96177 15.01 2.91875 14.8896 2.91663H10.8063C10.5583 2.91663 10.3396 3.10621 10.2958 3.35413L9.91667 6.05204C9.30417 6.31454 8.72084 6.64996 8.19584 7.05829L5.65834 6.03746C5.425 5.94996 5.1625 6.03746 5.03125 6.25621L2.98959 9.78538C2.85834 10.0041 2.91667 10.2812 3.10625 10.4416L5.26459 12.1333C5.22084 12.4541 5.19167 12.7895 5.19167 13.125C5.19167 13.4604 5.22084 13.7958 5.26459 14.1312L3.10625 15.8229C2.91667 15.9833 2.85834 16.2604 2.98959 16.4791L5.03125 20.0083C5.1625 20.227 5.425 20.3145 5.65834 20.227L8.19584 19.2062C8.72084 19.6145 9.28959 19.95 9.91667 20.2125L10.2958 22.9104C10.3396 23.1437 10.5583 23.3333 10.8063 23.3333H14.8896C15.1375 23.3333 15.3563 23.1437 15.4 22.8958L15.7792 20.1979C16.3917 19.9354 16.975 19.6 17.5 19.1916L20.0375 20.2125C20.2708 20.3 20.5333 20.2125 20.6646 19.9937ZM12.8479 16.0416C11.2438 16.0416 9.93125 14.7291 9.93125 13.125C9.93125 11.5208 11.2438 10.2083 12.8479 10.2083C14.4521 10.2083 15.7646 11.5208 15.7646 13.125C15.7646 14.7291 14.4521 16.0416 12.8479 16.0416ZM31.9667 27.227L30.5667 26.1479C30.5958 25.9437 30.625 25.725 30.625 25.5062C30.625 25.2875 30.6104 25.0687 30.5667 24.8645L31.9521 23.7854C32.0688 23.6833 32.1125 23.5083 32.025 23.3625L30.7125 21.102C30.6396 20.9562 30.4646 20.9125 30.3042 20.9562L28.6854 21.6125C28.35 21.35 27.9854 21.1312 27.5771 20.9708L27.3292 19.25C27.3234 19.172 27.2889 19.099 27.2323 19.0451C27.1757 18.9912 27.1011 18.9603 27.0229 18.9583H24.4125C24.2521 18.9583 24.1063 19.075 24.0917 19.2354L23.8438 20.9562C23.45 21.1312 23.0708 21.3354 22.7354 21.5979L21.1167 20.9416C21.0424 20.9137 20.9605 20.913 20.8858 20.9397C20.811 20.9664 20.7481 21.0188 20.7083 21.0875L19.3958 23.3479C19.3229 23.4937 19.3375 23.6687 19.4688 23.7708L20.8542 24.85C20.794 25.2756 20.794 25.7076 20.8542 26.1333L19.4688 27.2125C19.3521 27.3145 19.3083 27.4895 19.3958 27.6354L20.7083 29.8958C20.7813 30.0416 20.9563 30.0854 21.1167 30.0416L22.7354 29.3854C23.0708 29.6479 23.4354 29.8666 23.8438 30.027L24.0917 31.7479C24.1208 31.9083 24.2521 32.025 24.4125 32.025H27.0229C27.1833 32.025 27.3292 31.9083 27.3438 31.7479L27.5917 30.027C27.9854 29.852 28.3646 29.6479 28.6854 29.3854L30.3188 30.0416C30.4646 30.1 30.6396 30.0416 30.7271 29.8958L32.0396 27.6354C32.1271 27.5041 32.0833 27.3291 31.9667 27.227ZM25.7104 27.4604C25.1881 27.4602 24.6872 27.2525 24.318 26.883C23.9488 26.5135 23.7415 26.0125 23.7417 25.4902C23.7419 24.9678 23.9495 24.467 24.319 24.0977C24.6885 23.7285 25.1895 23.5212 25.7119 23.5214C26.2342 23.5216 26.7351 23.7293 27.1043 24.0988C27.4735 24.4683 27.6808 24.9693 27.6806 25.4916C27.6804 26.014 27.4728 26.5148 27.1033 26.884C26.7338 27.2533 26.2328 27.4606 25.7104 27.4604Z" fill="#309CFF"/>
</svg>
