<svg width="36" height="36" viewBox="0 0 36 36" fill="none" xmlns="http://www.w3.org/2000/svg">
<path d="M7.5 30C6.675 30 5.9685 29.706 5.3805 29.118C4.7925 28.53 4.499 27.824 4.5 27V6C4.5 5.175 4.794 4.4685 5.382 3.8805C5.97 3.2925 6.676 2.999 7.5 3H28.5C29.325 3 30.0315 3.294 30.6195 3.882C31.2075 4.47 31.501 5.176 31.5 6V14.5125C30.8 14.1625 30.0685 13.906 29.3055 13.743C28.5425 13.58 27.774 13.499 27 13.5C26.275 13.5 25.5875 13.569 24.9375 13.707C24.2875 13.845 23.65 14.0385 23.025 14.2875C23.1 14.0375 23.1565 13.7875 23.1945 13.5375C23.2325 13.2875 23.251 13.025 23.25 12.75C23.25 11.3 22.7375 10.0625 21.7125 9.0375C20.6875 8.0125 19.45 7.5 18 7.5C16.55 7.5 15.3125 8.0125 14.2875 9.0375C13.2625 10.0625 12.75 11.3 12.75 12.75C12.75 14.2 13.2625 15.4375 14.2875 16.4625C15.3125 17.4875 16.55 18 18 18H18.375C18.05 18.45 17.769 18.9315 17.532 19.4445C17.295 19.9575 17.0885 20.4885 16.9125 21.0375C15.0625 21.1625 13.3435 21.6 11.7555 22.35C10.1675 23.1 8.749 24.075 7.5 25.275V27H16.95C17.125 27.55 17.325 28.075 17.55 28.575C17.775 29.075 18.05 29.55 18.375 30H7.5ZM25.5 31.5L25.05 29.25C24.75 29.125 24.4685 28.9935 24.2055 28.8555C23.9425 28.7175 23.674 28.549 23.4 28.35L21.225 29.025L19.725 26.475L21.45 24.975C21.4 24.625 21.375 24.3 21.375 24C21.375 23.7 21.4 23.375 21.45 23.025L19.725 21.525L21.225 18.975L23.4 19.65C23.675 19.45 23.944 19.2815 24.207 19.1445C24.47 19.0075 24.751 18.876 25.05 18.75L25.5 16.5H28.5L28.95 18.75C29.25 18.875 29.5315 19.0125 29.7945 19.1625C30.0575 19.3125 30.326 19.5 30.6 19.725L32.775 18.975L34.275 21.6L32.55 23.1C32.6 23.4 32.625 23.7125 32.625 24.0375C32.625 24.3625 32.6 24.675 32.55 24.975L34.275 26.475L32.775 29.025L30.6 28.35C30.325 28.55 30.0565 28.719 29.7945 28.857C29.5325 28.995 29.251 29.126 28.95 29.25L28.5 31.5H25.5ZM27 27C27.825 27 28.5315 26.706 29.1195 26.118C29.7075 25.53 30.001 24.824 30 24C30 23.175 29.706 22.4685 29.118 21.8805C28.53 21.2925 27.824 20.999 27 21C26.175 21 25.4685 21.294 24.8805 21.882C24.2925 22.47 23.999 23.176 24 24C24 24.825 24.294 25.5315 24.882 26.1195C25.47 26.7075 26.176 27.001 27 27Z" fill="#309CFF"/>
</svg>
