<svg width="30" height="30" viewBox="0 0 30 30" fill="none" xmlns="http://www.w3.org/2000/svg">
<g clip-path="url(#clip0_14_630)">
<path d="M25.5612 25.5616H21.1162V18.6003C21.1162 16.9403 21.0865 14.8034 18.8043 14.8034C16.4891 14.8034 16.1349 16.6121 16.1349 18.4795V25.5611H11.69V11.246H15.9571V13.2023H16.0169C16.4439 12.4721 17.061 11.8714 17.8024 11.4642C18.5439 11.057 19.3819 10.8585 20.2272 10.8898C24.7325 10.8898 25.5631 13.8533 25.5631 17.7085L25.5612 25.5616ZM6.67433 9.28928C5.24968 9.28952 4.09457 8.13475 4.09433 6.7101C4.0941 5.28546 5.24875 4.13034 6.6734 4.1301C8.09804 4.12975 9.25316 5.28452 9.2534 6.70917C9.25352 7.39331 8.98187 8.04949 8.49821 8.53335C8.01454 9.01721 7.35848 9.28913 6.67433 9.28928ZM8.89691 25.5617H4.44718V11.246H8.89679V25.5616L8.89691 25.5617ZM27.7772 0.00193928H2.21359C1.00539 -0.0116545 0.0145673 0.956197 -0.000198364 2.1644V27.8347C0.0140985 29.0435 1.0048 30.0123 2.21347 29.9996H27.7772C28.9885 30.0146 29.983 29.0458 29.9998 27.8347V2.16241C29.9826 0.951861 28.9879 -0.0158732 27.7772 -5.29032e-05" fill="#0A66C2"/>
</g>
<defs>
<clipPath id="clip0_14_630">
<rect width="30" height="30" fill="white"/>
</clipPath>
</defs>
</svg>
